<svg width="18" height="19" viewBox="0 0 18 19" fill="none" xmlns="http://www.w3.org/2000/svg">
<path d="M5.30779 3.97674C4.92932 3.97674 4.61548 3.67628 4.61548 3.31395V0.662791C4.61548 0.300465 4.92932 0 5.30779 0C5.68625 0 6.00009 0.300465 6.00009 0.662791V3.31395C6.00009 3.67628 5.68625 3.97674 5.30779 3.97674Z" fill="#053DA9"/>
<path d="M12.6923 3.97674C12.3138 3.97674 12 3.67628 12 3.31395V0.662791C12 0.300465 12.3138 0 12.6923 0C13.0708 0 13.3846 0.300465 13.3846 0.662791V3.31395C13.3846 3.67628 13.0708 3.97674 12.6923 3.97674Z" fill="#053DA9"/>
<path d="M5.76927 11.7093C5.64927 11.7093 5.52927 11.6828 5.4185 11.6386C5.2985 11.5944 5.20619 11.5326 5.11388 11.453C4.94773 11.2851 4.84619 11.0642 4.84619 10.8256C4.84619 10.7107 4.87388 10.5958 4.92004 10.4898C4.96619 10.3837 5.03081 10.2865 5.11388 10.1981C5.20619 10.1186 5.2985 10.0568 5.4185 10.0126C5.75081 9.88001 6.16619 9.95071 6.42465 10.1981C6.59081 10.3661 6.69235 10.5958 6.69235 10.8256C6.69235 10.8786 6.68311 10.9405 6.67388 11.0023C6.66465 11.0554 6.64619 11.1084 6.6185 11.1614C6.60004 11.2144 6.57235 11.2674 6.53542 11.3205C6.50773 11.3647 6.46158 11.4088 6.42465 11.453C6.24927 11.6121 6.00927 11.7093 5.76927 11.7093Z" fill="#053DA9"/>
<path d="M8.99998 11.7093C8.87998 11.7093 8.75998 11.6828 8.64921 11.6386C8.52921 11.5944 8.4369 11.5326 8.3446 11.4531C8.17844 11.2851 8.0769 11.0642 8.0769 10.8256C8.0769 10.7107 8.1046 10.5958 8.15075 10.4898C8.1969 10.3837 8.26152 10.2865 8.3446 10.1982C8.4369 10.1186 8.52921 10.0568 8.64921 10.0126C8.98152 9.87119 9.3969 9.95073 9.65537 10.1982C9.82152 10.3661 9.92306 10.5958 9.92306 10.8256C9.92306 10.8786 9.91383 10.9405 9.9046 11.0024C9.89537 11.0554 9.8769 11.1084 9.84921 11.1614C9.83075 11.2144 9.80306 11.2675 9.76613 11.3205C9.73844 11.3647 9.69229 11.4089 9.65537 11.4531C9.47998 11.6121 9.23998 11.7093 8.99998 11.7093Z" fill="#053DA9"/>
<path d="M12.2308 11.7093C12.1108 11.7093 11.9908 11.6828 11.88 11.6386C11.76 11.5944 11.6677 11.5326 11.5754 11.4531C11.5385 11.4089 11.5016 11.3647 11.4647 11.3205C11.4277 11.2675 11.4 11.2144 11.3816 11.1614C11.3539 11.1084 11.3354 11.0554 11.3262 11.0024C11.317 10.9405 11.3077 10.8786 11.3077 10.8256C11.3077 10.5958 11.4093 10.3661 11.5754 10.1982C11.6677 10.1186 11.76 10.0568 11.88 10.0126C12.2216 9.87119 12.6277 9.95073 12.8862 10.1982C13.0524 10.3661 13.1539 10.5958 13.1539 10.8256C13.1539 10.8786 13.1447 10.9405 13.1354 11.0024C13.1262 11.0554 13.1077 11.1084 13.08 11.1614C13.0616 11.2144 13.0339 11.2675 12.997 11.3205C12.9693 11.3647 12.9231 11.4089 12.8862 11.4531C12.7108 11.6121 12.4708 11.7093 12.2308 11.7093Z" fill="#053DA9"/>
<path d="M5.76927 14.8022C5.64927 14.8022 5.52927 14.7758 5.4185 14.7316C5.30773 14.6874 5.20619 14.6255 5.11388 14.5459C4.94773 14.378 4.84619 14.1483 4.84619 13.9185C4.84619 13.8036 4.87388 13.6887 4.92004 13.5827C4.96619 13.4678 5.03081 13.3707 5.11388 13.2911C5.45542 12.9642 6.08311 12.9642 6.42465 13.2911C6.59081 13.459 6.69235 13.6887 6.69235 13.9185C6.69235 14.1483 6.59081 14.378 6.42465 14.5459C6.24927 14.705 6.00927 14.8022 5.76927 14.8022Z" fill="#053DA9"/>
<path d="M8.99998 14.8022C8.75998 14.8022 8.51998 14.705 8.3446 14.5459C8.17844 14.378 8.0769 14.1483 8.0769 13.9185C8.0769 13.8036 8.1046 13.6887 8.15075 13.5827C8.1969 13.4678 8.26152 13.3707 8.3446 13.2911C8.68613 12.9642 9.31383 12.9642 9.65537 13.2911C9.73844 13.3707 9.80306 13.4678 9.84921 13.5827C9.89537 13.6887 9.92306 13.8036 9.92306 13.9185C9.92306 14.1483 9.82152 14.378 9.65537 14.5459C9.47998 14.705 9.23998 14.8022 8.99998 14.8022Z" fill="#053DA9"/>
<path d="M12.2308 14.8024C11.9908 14.8024 11.7508 14.7052 11.5754 14.5461C11.4924 14.4666 11.4277 14.3694 11.3816 14.2545C11.3354 14.1484 11.3077 14.0336 11.3077 13.9187C11.3077 13.8038 11.3354 13.6889 11.3816 13.5829C11.4277 13.468 11.4924 13.3708 11.5754 13.2912C11.7877 13.088 12.1108 12.9908 12.4062 13.0526C12.4708 13.0615 12.5262 13.0791 12.5816 13.1057C12.637 13.1233 12.6924 13.1498 12.7477 13.1852C12.7939 13.2117 12.84 13.2559 12.8862 13.2912C13.0524 13.4591 13.1539 13.6889 13.1539 13.9187C13.1539 14.1484 13.0524 14.3782 12.8862 14.5461C12.7108 14.7052 12.4708 14.8024 12.2308 14.8024Z" fill="#053DA9"/>
<path d="M16.8462 7.59096H1.15386C0.775394 7.59096 0.461548 7.2905 0.461548 6.92817C0.461548 6.56585 0.775394 6.26538 1.15386 6.26538H16.8462C17.2246 6.26538 17.5385 6.56585 17.5385 6.92817C17.5385 7.2905 17.2246 7.59096 16.8462 7.59096Z" fill="#053DA9"/>
<path d="M12.6923 19.0001H5.30769C1.93846 19.0001 0 17.1443 0 13.9187V6.40708C0 3.1815 1.93846 1.32568 5.30769 1.32568H12.6923C16.0615 1.32568 18 3.1815 18 6.40708V13.9187C18 17.1443 16.0615 19.0001 12.6923 19.0001ZM5.30769 2.65127C2.66769 2.65127 1.38462 3.87964 1.38462 6.40708V13.9187C1.38462 16.4461 2.66769 17.6745 5.30769 17.6745H12.6923C15.3323 17.6745 16.6154 16.4461 16.6154 13.9187V6.40708C16.6154 3.87964 15.3323 2.65127 12.6923 2.65127H5.30769Z" fill="#053DA9"/>
</svg>
